<?xml version="1.0" encoding="UTF-8" standalone="no"?>
<!DOCTYPE svg PUBLIC "-//W3C//DTD SVG 1.1//EN"
 "http://www.w3.org/Graphics/SVG/1.1/DTD/svg11.dtd">
<!-- Generated by graphviz version 13.1.0 (20250701.0955)
 -->
<!-- Title: Data Platform &#45; Enterprise Data Flow Architecture Pages: 1 -->
<svg width="3379pt" height="1548pt"
 viewBox="0.00 0.00 3379.00 1548.00" xmlns="http://www.w3.org/2000/svg" xmlns:xlink="http://www.w3.org/1999/xlink">
<g id="graph0" class="graph" transform="scale(1 1) rotate(0) translate(72 1475.5)">
<title>Data Platform &#45; Enterprise Data Flow Architecture</title>
<polygon fill="#fafafa" stroke="none" points="-72,72 -72,-1475.5 3307.3,-1475.5 3307.3,72 -72,72"/>
<text xml:space="preserve" text-anchor="middle" x="1617.65" y="-9.4" font-family="Helvetica Bold" font-size="18.00" fill="#2d3436">Data Platform &#45; Enterprise Data Flow Architecture</text>
<g id="clust1" class="cluster">
<title>cluster_🎯 Data Sources</title>
<polygon fill="#e1f5fe" stroke="#aeb6be" points="8,-812.5 8,-1104.5 729.15,-1104.5 729.15,-812.5 8,-812.5"/>
<text xml:space="preserve" text-anchor="middle" x="60.62" y="-1089.1" font-family="Sans-Serif" font-size="12.00" fill="#2d3436">🎯 Data Sources</text>
</g>
<g id="clust2" class="cluster">
<title>cluster_🔄 Ingestion Pipeline</title>
<polygon fill="#f3e5f5" stroke="#aeb6be" points="965.15,-841.5 965.15,-1104.5 1679.55,-1104.5 1679.55,-841.5 965.15,-841.5"/>
<text xml:space="preserve" text-anchor="middle" x="1030.53" y="-1089.1" font-family="Sans-Serif" font-size="12.00" fill="#2d3436">🔄 Ingestion Pipeline</text>
</g>
<g id="clust3" class="cluster">
<title>cluster_⚡ Processing Engine</title>
<polygon fill="#e8f5e8" stroke="#aeb6be" points="1562.75,-570.5 1562.75,-833.5 2292.9,-833.5 2292.9,-570.5 1562.75,-570.5"/>
<text xml:space="preserve" text-anchor="middle" x="1628.88" y="-818.1" font-family="Sans-Serif" font-size="12.00" fill="#2d3436">⚡ Processing Engine</text>
</g>
<g id="clust4" class="cluster">
<title>cluster_🏗️ Data Warehouse</title>
<polygon fill="#fff3e0" stroke="#aeb6be" points="2490.65,-387.5 2490.65,-1395.5 2933,-1395.5 2933,-387.5 2490.65,-387.5"/>
<text xml:space="preserve" text-anchor="middle" x="2551.9" y="-1380.1" font-family="Sans-Serif" font-size="12.00" fill="#2d3436">🏗️ Data Warehouse</text>
</g>
<g id="clust5" class="cluster">
<title>cluster_Table Schema</title>
<path fill="#ebf3e7" stroke="#aeb6be" d="M2820.2,-395.5C2820.2,-395.5 2913,-395.5 2913,-395.5 2919,-395.5 2925,-401.5 2925,-407.5 2925,-407.5 2925,-1351.5 2925,-1351.5 2925,-1357.5 2919,-1363.5 2913,-1363.5 2913,-1363.5 2820.2,-1363.5 2820.2,-1363.5 2814.2,-1363.5 2808.2,-1357.5 2808.2,-1351.5 2808.2,-1351.5 2808.2,-407.5 2808.2,-407.5 2808.2,-401.5 2814.2,-395.5 2820.2,-395.5"/>
<text xml:space="preserve" text-anchor="middle" x="2852.2" y="-1348.1" font-family="Sans-Serif" font-size="12.00" fill="#2d3436">Table Schema</text>
</g>
<g id="clust6" class="cluster">
<title>cluster_📊 Analytics &amp; BI</title>
<polygon fill="#e8eaf6" stroke="#aeb6be" points="3094.5,-166.5 3094.5,-1265.5 3227.3,-1265.5 3227.3,-166.5 3094.5,-166.5"/>
<text xml:space="preserve" text-anchor="middle" x="3149.38" y="-1250.1" font-family="Sans-Serif" font-size="12.00" fill="#2d3436">📊 Analytics &amp; BI</text>
</g>
<g id="clust7" class="cluster">
<title>cluster_Dashboard Suite</title>
<path fill="#ebf3e7" stroke="#aeb6be" d="M3114.5,-174.5C3114.5,-174.5 3207.3,-174.5 3207.3,-174.5 3213.3,-174.5 3219.3,-180.5 3219.3,-186.5 3219.3,-186.5 3219.3,-1015.5 3219.3,-1015.5 3219.3,-1021.5 3213.3,-1027.5 3207.3,-1027.5 3207.3,-1027.5 3114.5,-1027.5 3114.5,-1027.5 3108.5,-1027.5 3102.5,-1021.5 3102.5,-1015.5 3102.5,-1015.5 3102.5,-186.5 3102.5,-186.5 3102.5,-180.5 3108.5,-174.5 3114.5,-174.5"/>
<text xml:space="preserve" text-anchor="middle" x="3154" y="-1012.1" font-family="Sans-Serif" font-size="12.00" fill="#2d3436">Dashboard Suite</text>
</g>
<g id="clust8" class="cluster">
<title>cluster_🔍 Observability</title>
<polygon fill="#ffebee" stroke="#aeb6be" points="1878.8,-38.5 1878.8,-538.5 2292.9,-538.5 2292.9,-38.5 1878.8,-38.5"/>
<text xml:space="preserve" text-anchor="middle" x="1931.05" y="-523.1" font-family="Sans-Serif" font-size="12.00" fill="#2d3436">🔍 Observability</text>
</g>
<!-- 6a217bebf7204729b77e64c920a85f27 -->
<g id="node1" class="node">
<title>6a217bebf7204729b77e64c920a85f27</title>
<path fill="#ffffff" stroke="none" stroke-width="2.5" d="M104.8,-1029.3C104.8,-1029.3 28,-1029.3 28,-1029.3 22,-1029.3 16,-1023.3 16,-1017.3 16,-1017.3 16,-875.7 16,-875.7 16,-869.7 22,-863.7 28,-863.7 28,-863.7 104.8,-863.7 104.8,-863.7 110.8,-863.7 116.8,-869.7 116.8,-875.7 116.8,-875.7 116.8,-1017.3 116.8,-1017.3 116.8,-1023.3 110.8,-1029.3 104.8,-1029.3"/>
<image xlink:href="D:\Data Engineering\Projects\data-platform\.venv\Lib\site-packages\resources/onprem/network\internet.png" width="100.8px" height="100.8px" preserveAspectRatio="xMinYMin meet" x="16" y="-996.9"/>
<text xml:space="preserve" text-anchor="middle" x="66.4" y="-880.25" font-family="Helvetica,sans-Serif" font-size="11.00" fill="#2d3436">User Simulation</text>
<text xml:space="preserve" text-anchor="middle" x="66.4" y="-866.75" font-family="Helvetica,sans-Serif" font-size="11.00" fill="#2d3436">Behavior Patterns</text>
</g>
<!-- 6ccd078081004ae2aa64756aa2f6deb1 -->
<g id="node2" class="node">
<title>6ccd078081004ae2aa64756aa2f6deb1</title>
<path fill="#ffffff" stroke="none" stroke-width="2.5" d="M405.85,-1029.3C405.85,-1029.3 329.05,-1029.3 329.05,-1029.3 323.05,-1029.3 317.05,-1023.3 317.05,-1017.3 317.05,-1017.3 317.05,-875.7 317.05,-875.7 317.05,-869.7 323.05,-863.7 329.05,-863.7 329.05,-863.7 405.85,-863.7 405.85,-863.7 411.85,-863.7 417.85,-869.7 417.85,-875.7 417.85,-875.7 417.85,-1017.3 417.85,-1017.3 417.85,-1023.3 411.85,-1029.3 405.85,-1029.3"/>
<image xlink:href="D:\Data Engineering\Projects\data-platform\.venv\Lib\site-packages\resources/programming/language\python.png" width="100.8px" height="100.8px" preserveAspectRatio="xMinYMin meet" x="317.05" y="-996.9"/>
<text xml:space="preserve" text-anchor="middle" x="367.45" y="-880.25" font-family="Helvetica,sans-Serif" font-size="11.00" fill="#2d3436">Faker Library</text>
<text xml:space="preserve" text-anchor="middle" x="367.45" y="-866.75" font-family="Helvetica,sans-Serif" font-size="11.00" fill="#2d3436">Data Generation</text>
</g>
<!-- 6a217bebf7204729b77e64c920a85f27&#45;&gt;6ccd078081004ae2aa64756aa2f6deb1 -->
<g id="edge1" class="edge">
<title>6a217bebf7204729b77e64c920a85f27&#45;&gt;6ccd078081004ae2aa64756aa2f6deb1</title>
<path fill="none" stroke="#0d47a1" stroke-width="3" d="M116.79,-946.5C116.79,-946.5 298.49,-946.5 298.49,-946.5"/>
<polygon fill="#0d47a1" stroke="#0d47a1" stroke-width="3" points="313.49,-946.5 298.49,-953.25 309.65,-947.5 298.49,-947.5 298.49,-946.5 298.49,-945.5 309.65,-945.5 298.49,-939.75 313.49,-946.5"/>
<text xml:space="preserve" text-anchor="middle" x="216.93" y="-950.65" font-family="Sans-Serif" font-size="13.00" fill="#2d3436">Simulates</text>
</g>
<!-- c2cef2fb454f479fb54c4ae5658b9eeb -->
<g id="node3" class="node">
<title>c2cef2fb454f479fb54c4ae5658b9eeb</title>
<path fill="#ffffff" stroke="none" stroke-width="2.5" d="M709.15,-1072.5C709.15,-1072.5 632.35,-1072.5 632.35,-1072.5 626.35,-1072.5 620.35,-1066.5 620.35,-1060.5 620.35,-1060.5 620.35,-832.5 620.35,-832.5 620.35,-826.5 626.35,-820.5 632.35,-820.5 632.35,-820.5 709.15,-820.5 709.15,-820.5 715.15,-820.5 721.15,-826.5 721.15,-832.5 721.15,-832.5 721.15,-1060.5 721.15,-1060.5 721.15,-1066.5 715.15,-1072.5 709.15,-1072.5"/>
<image xlink:href="D:\Data Engineering\Projects\data-platform\.venv\Lib\site-packages\resources/onprem/compute\server.png" width="100.8px" height="100.8px" preserveAspectRatio="xMinYMin meet" x="620.35" y="-996.9"/>
<text xml:space="preserve" text-anchor="middle" x="670.75" y="-877.55" font-family="Helvetica,sans-Serif" font-size="11.00" fill="#2d3436">Event Types</text>
<text xml:space="preserve" text-anchor="middle" x="670.75" y="-864.05" font-family="Helvetica,sans-Serif" font-size="11.00" fill="#2d3436">• Page Views</text>
<text xml:space="preserve" text-anchor="middle" x="670.75" y="-850.55" font-family="Helvetica,sans-Serif" font-size="11.00" fill="#2d3436">• Add to Cart</text>
<text xml:space="preserve" text-anchor="middle" x="670.75" y="-837.05" font-family="Helvetica,sans-Serif" font-size="11.00" fill="#2d3436">• Purchases</text>
<text xml:space="preserve" text-anchor="middle" x="670.75" y="-823.55" font-family="Helvetica,sans-Serif" font-size="11.00" fill="#2d3436">• User Actions</text>
</g>
<!-- 6ccd078081004ae2aa64756aa2f6deb1&#45;&gt;c2cef2fb454f479fb54c4ae5658b9eeb -->
<g id="edge2" class="edge">
<title>6ccd078081004ae2aa64756aa2f6deb1&#45;&gt;c2cef2fb454f479fb54c4ae5658b9eeb</title>
<path fill="none" stroke="#0d47a1" stroke-width="3" d="M417.53,-946.5C417.53,-946.5 601.94,-946.5 601.94,-946.5"/>
<polygon fill="#0d47a1" stroke="#0d47a1" stroke-width="3" points="616.94,-946.5 601.94,-953.25 613.09,-947.5 601.94,-947.5 601.94,-946.5 601.94,-945.5 613.09,-945.5 601.94,-939.75 616.94,-946.5"/>
<text xml:space="preserve" text-anchor="middle" x="519.1" y="-950.65" font-family="Sans-Serif" font-size="13.00" fill="#2d3436">Generates</text>
</g>
<!-- 90aa00363adf4afebe44d4e4fad26d5f -->
<g id="node4" class="node">
<title>90aa00363adf4afebe44d4e4fad26d5f</title>
<path fill="#ffffff" stroke="none" stroke-width="2.5" d="M1061.95,-1029.3C1061.95,-1029.3 985.15,-1029.3 985.15,-1029.3 979.15,-1029.3 973.15,-1023.3 973.15,-1017.3 973.15,-1017.3 973.15,-875.7 973.15,-875.7 973.15,-869.7 979.15,-863.7 985.15,-863.7 985.15,-863.7 1061.95,-863.7 1061.95,-863.7 1067.95,-863.7 1073.95,-869.7 1073.95,-875.7 1073.95,-875.7 1073.95,-1017.3 1073.95,-1017.3 1073.95,-1023.3 1067.95,-1029.3 1061.95,-1029.3"/>
<image xlink:href="D:\Data Engineering\Projects\data-platform\.venv\Lib\site-packages\resources/programming/language\python.png" width="100.8px" height="100.8px" preserveAspectRatio="xMinYMin meet" x="973.15" y="-996.9"/>
<text xml:space="preserve" text-anchor="middle" x="1023.55" y="-880.25" font-family="Helvetica,sans-Serif" font-size="11.00" fill="#2d3436">Data Collector</text>
<text xml:space="preserve" text-anchor="middle" x="1023.55" y="-866.75" font-family="Helvetica,sans-Serif" font-size="11.00" fill="#2d3436">main.py</text>
</g>
<!-- c2cef2fb454f479fb54c4ae5658b9eeb&#45;&gt;90aa00363adf4afebe44d4e4fad26d5f -->
<g id="edge3" class="edge">
<title>c2cef2fb454f479fb54c4ae5658b9eeb&#45;&gt;90aa00363adf4afebe44d4e4fad26d5f</title>
<path fill="none" stroke="#0d47a1" stroke-width="3" d="M720.92,-946.5C720.92,-946.5 954.61,-946.5 954.61,-946.5"/>
<polygon fill="#0d47a1" stroke="#0d47a1" stroke-width="3" points="969.61,-946.5 954.61,-953.25 965.76,-947.5 954.61,-947.5 954.61,-946.5 954.61,-945.5 965.76,-945.5 954.61,-939.75 969.61,-946.5"/>
<text xml:space="preserve" text-anchor="middle" x="847.15" y="-967.15" font-family="Sans-Serif" font-size="13.00" fill="#2d3436">Raw Events</text>
<text xml:space="preserve" text-anchor="middle" x="847.15" y="-950.65" font-family="Sans-Serif" font-size="13.00" fill="#2d3436">(1K+ events/hour)</text>
</g>
<!-- 2e96fff5818149ebbd71af80b1d33357 -->
<g id="node5" class="node">
<title>2e96fff5818149ebbd71af80b1d33357</title>
<path fill="#ffffff" stroke="none" stroke-width="2.5" d="M1352.5,-1073.1C1352.5,-1073.1 1275.7,-1073.1 1275.7,-1073.1 1269.7,-1073.1 1263.7,-1067.1 1263.7,-1061.1 1263.7,-1061.1 1263.7,-861.9 1263.7,-861.9 1263.7,-855.9 1269.7,-849.9 1275.7,-849.9 1275.7,-849.9 1352.5,-849.9 1352.5,-849.9 1358.5,-849.9 1364.5,-855.9 1364.5,-861.9 1364.5,-861.9 1364.5,-1061.1 1364.5,-1061.1 1364.5,-1067.1 1358.5,-1073.1 1352.5,-1073.1"/>
<image xlink:href="D:\Data Engineering\Projects\data-platform\.venv\Lib\site-packages\resources/onprem/compute\server.png" width="100.8px" height="100.8px" preserveAspectRatio="xMinYMin meet" x="1263.7" y="-1011.9"/>
<text xml:space="preserve" text-anchor="middle" x="1314.1" y="-893.45" font-family="Helvetica,sans-Serif" font-size="11.00" fill="#2d3436">Data Validator</text>
<text xml:space="preserve" text-anchor="middle" x="1314.1" y="-879.95" font-family="Helvetica,sans-Serif" font-size="11.00" fill="#2d3436">• Schema Validation</text>
<text xml:space="preserve" text-anchor="middle" x="1314.1" y="-866.45" font-family="Helvetica,sans-Serif" font-size="11.00" fill="#2d3436">• Quality Checks</text>
<text xml:space="preserve" text-anchor="middle" x="1314.1" y="-852.95" font-family="Helvetica,sans-Serif" font-size="11.00" fill="#2d3436">• Error Detection</text>
</g>
<!-- 90aa00363adf4afebe44d4e4fad26d5f&#45;&gt;2e96fff5818149ebbd71af80b1d33357 -->
<g id="edge4" class="edge">
<title>90aa00363adf4afebe44d4e4fad26d5f&#45;&gt;2e96fff5818149ebbd71af80b1d33357</title>
<path fill="none" stroke="#1b5e20" stroke-width="2.5" d="M1073.83,-946.5C1073.83,-946.5 1245.91,-946.5 1245.91,-946.5"/>
<polygon fill="#1b5e20" stroke="#1b5e20" stroke-width="2.5" points="1260.91,-946.5 1245.91,-953.25 1256.45,-947.25 1245.91,-947.25 1245.91,-946.5 1245.91,-945.75 1256.45,-945.75 1245.91,-939.75 1260.91,-946.5"/>
<text xml:space="preserve" text-anchor="middle" x="1168.83" y="-957.65" font-family="Sans-Serif" font-size="13.00" fill="#2d3436">Validate</text>
</g>
<!-- 5c36ebf94309436f8b24adbf190979b9 -->
<g id="node18" class="node">
<title>5c36ebf94309436f8b24adbf190979b9</title>
<path fill="#ffffff" stroke="none" stroke-width="2.5" d="M1975.6,-212.3C1975.6,-212.3 1898.8,-212.3 1898.8,-212.3 1892.8,-212.3 1886.8,-206.3 1886.8,-200.3 1886.8,-200.3 1886.8,-58.7 1886.8,-58.7 1886.8,-52.7 1892.8,-46.7 1898.8,-46.7 1898.8,-46.7 1975.6,-46.7 1975.6,-46.7 1981.6,-46.7 1987.6,-52.7 1987.6,-58.7 1987.6,-58.7 1987.6,-200.3 1987.6,-200.3 1987.6,-206.3 1981.6,-212.3 1975.6,-212.3"/>
<image xlink:href="D:\Data Engineering\Projects\data-platform\.venv\Lib\site-packages\resources/onprem/monitoring\prometheus.png" width="100.8px" height="100.8px" preserveAspectRatio="xMinYMin meet" x="1886.8" y="-179.9"/>
<text xml:space="preserve" text-anchor="middle" x="1937.2" y="-63.25" font-family="Helvetica,sans-Serif" font-size="11.00" fill="#2d3436">Log Aggregator</text>
<text xml:space="preserve" text-anchor="middle" x="1937.2" y="-49.75" font-family="Helvetica,sans-Serif" font-size="11.00" fill="#2d3436">Centralized Logging</text>
</g>
<!-- 90aa00363adf4afebe44d4e4fad26d5f&#45;&gt;5c36ebf94309436f8b24adbf190979b9 -->
<g id="edge17" class="edge">
<title>90aa00363adf4afebe44d4e4fad26d5f&#45;&gt;5c36ebf94309436f8b24adbf190979b9</title>
<path fill="none" stroke="#b71c1c" stroke-width="2.5" stroke-dasharray="1,5" d="M1023.3,-864.04C1023.3,-656.6 1023.3,-129.5 1023.3,-129.5 1023.3,-129.5 1869.04,-129.5 1869.04,-129.5"/>
<polygon fill="#b71c1c" stroke="#b71c1c" stroke-width="2.5" points="1884.04,-129.5 1869.04,-136.25 1879.59,-130.25 1869.04,-130.25 1869.04,-129.5 1869.04,-128.75 1879.59,-128.75 1869.04,-122.75 1884.04,-129.5"/>
<text xml:space="preserve" text-anchor="middle" x="1467.63" y="-198.65" font-family="Sans-Serif" font-size="13.00" fill="#2d3436">Logs</text>
</g>
<!-- 7c6e3cf483e24a03afed113140eca8b5 -->
<g id="node6" class="node">
<title>7c6e3cf483e24a03afed113140eca8b5</title>
<path fill="#ffffff" stroke="none" stroke-width="2.5" d="M1659.55,-1073.1C1659.55,-1073.1 1582.75,-1073.1 1582.75,-1073.1 1576.75,-1073.1 1570.75,-1067.1 1570.75,-1061.1 1570.75,-1061.1 1570.75,-861.9 1570.75,-861.9 1570.75,-855.9 1576.75,-849.9 1582.75,-849.9 1582.75,-849.9 1659.55,-849.9 1659.55,-849.9 1665.55,-849.9 1671.55,-855.9 1671.55,-861.9 1671.55,-861.9 1671.55,-1061.1 1671.55,-1061.1 1671.55,-1067.1 1665.55,-1073.1 1659.55,-1073.1"/>
<image xlink:href="D:\Data Engineering\Projects\data-platform\.venv\Lib\site-packages\resources/onprem/compute\server.png" width="100.8px" height="100.8px" preserveAspectRatio="xMinYMin meet" x="1570.75" y="-1011.9"/>
<text xml:space="preserve" text-anchor="middle" x="1621.15" y="-893.45" font-family="Helvetica,sans-Serif" font-size="11.00" fill="#2d3436">Error Handler</text>
<text xml:space="preserve" text-anchor="middle" x="1621.15" y="-879.95" font-family="Helvetica,sans-Serif" font-size="11.00" fill="#2d3436">• Retry Logic</text>
<text xml:space="preserve" text-anchor="middle" x="1621.15" y="-866.45" font-family="Helvetica,sans-Serif" font-size="11.00" fill="#2d3436">• Dead Letter Queue</text>
<text xml:space="preserve" text-anchor="middle" x="1621.15" y="-852.95" font-family="Helvetica,sans-Serif" font-size="11.00" fill="#2d3436">• Alert System</text>
</g>
<!-- 2e96fff5818149ebbd71af80b1d33357&#45;&gt;7c6e3cf483e24a03afed113140eca8b5 -->
<g id="edge6" class="edge">
<title>2e96fff5818149ebbd71af80b1d33357&#45;&gt;7c6e3cf483e24a03afed113140eca8b5</title>
<path fill="none" stroke="#d32f2f" stroke-width="2.5" stroke-dasharray="5,2" d="M1364.46,-961.5C1364.46,-961.5 1552.72,-961.5 1552.72,-961.5"/>
<polygon fill="#d32f2f" stroke="#d32f2f" stroke-width="2.5" points="1567.72,-961.5 1552.72,-968.25 1563.26,-962.25 1552.72,-962.25 1552.72,-961.5 1552.72,-960.75 1563.26,-960.75 1552.72,-954.75 1567.72,-961.5"/>
<text xml:space="preserve" text-anchor="middle" x="1467.63" y="-965.65" font-family="Sans-Serif" font-size="13.00" fill="#2d3436">Errors</text>
</g>
<!-- 32e64774015e4dc1adab2f50e1521a7a -->
<g id="node7" class="node">
<title>32e64774015e4dc1adab2f50e1521a7a</title>
<path fill="#ffffff" stroke="none" stroke-width="2.5" d="M1659.55,-773.3C1659.55,-773.3 1582.75,-773.3 1582.75,-773.3 1576.75,-773.3 1570.75,-767.3 1570.75,-761.3 1570.75,-761.3 1570.75,-619.7 1570.75,-619.7 1570.75,-613.7 1576.75,-607.7 1582.75,-607.7 1582.75,-607.7 1659.55,-607.7 1659.55,-607.7 1665.55,-607.7 1671.55,-613.7 1671.55,-619.7 1671.55,-619.7 1671.55,-761.3 1671.55,-761.3 1671.55,-767.3 1665.55,-773.3 1659.55,-773.3"/>
<image xlink:href="D:\Data Engineering\Projects\data-platform\.venv\Lib\site-packages\resources/programming/language\python.png" width="100.8px" height="100.8px" preserveAspectRatio="xMinYMin meet" x="1570.75" y="-740.9"/>
<text xml:space="preserve" text-anchor="middle" x="1621.15" y="-624.25" font-family="Helvetica,sans-Serif" font-size="11.00" fill="#2d3436">ETL Engine</text>
<text xml:space="preserve" text-anchor="middle" x="1621.15" y="-610.75" font-family="Helvetica,sans-Serif" font-size="11.00" fill="#2d3436">Transformation Logic</text>
</g>
<!-- 2e96fff5818149ebbd71af80b1d33357&#45;&gt;32e64774015e4dc1adab2f50e1521a7a -->
<g id="edge5" class="edge">
<title>2e96fff5818149ebbd71af80b1d33357&#45;&gt;32e64774015e4dc1adab2f50e1521a7a</title>
<path fill="none" stroke="#1b5e20" stroke-width="2.5" d="M1331.3,-850.1C1331.3,-775.36 1331.3,-690.5 1331.3,-690.5 1331.3,-690.5 1552.95,-690.5 1552.95,-690.5"/>
<polygon fill="#1b5e20" stroke="#1b5e20" stroke-width="2.5" points="1567.95,-690.5 1552.95,-697.25 1563.49,-691.25 1552.95,-691.25 1552.95,-690.5 1552.95,-689.75 1563.49,-689.75 1552.95,-683.75 1567.95,-690.5"/>
<text xml:space="preserve" text-anchor="middle" x="1467.63" y="-782.65" font-family="Sans-Serif" font-size="13.00" fill="#2d3436">Clean Data</text>
</g>
<!-- f54a6362fd06408c94fe9771ae1f65da -->
<g id="node19" class="node">
<title>f54a6362fd06408c94fe9771ae1f65da</title>
<path fill="#ffffff" stroke="none" stroke-width="2.5" d="M1975.6,-507.1C1975.6,-507.1 1898.8,-507.1 1898.8,-507.1 1892.8,-507.1 1886.8,-501.1 1886.8,-495.1 1886.8,-495.1 1886.8,-295.9 1886.8,-295.9 1886.8,-289.9 1892.8,-283.9 1898.8,-283.9 1898.8,-283.9 1975.6,-283.9 1975.6,-283.9 1981.6,-283.9 1987.6,-289.9 1987.6,-295.9 1987.6,-295.9 1987.6,-495.1 1987.6,-495.1 1987.6,-501.1 1981.6,-507.1 1975.6,-507.1"/>
<image xlink:href="D:\Data Engineering\Projects\data-platform\.venv\Lib\site-packages\resources/onprem/compute\server.png" width="100.8px" height="100.8px" preserveAspectRatio="xMinYMin meet" x="1886.8" y="-445.9"/>
<text xml:space="preserve" text-anchor="middle" x="1937.2" y="-327.45" font-family="Helvetica,sans-Serif" font-size="11.00" fill="#2d3436">Health Monitor</text>
<text xml:space="preserve" text-anchor="middle" x="1937.2" y="-313.95" font-family="Helvetica,sans-Serif" font-size="11.00" fill="#2d3436">• Pipeline Status</text>
<text xml:space="preserve" text-anchor="middle" x="1937.2" y="-300.45" font-family="Helvetica,sans-Serif" font-size="11.00" fill="#2d3436">• Data Freshness</text>
<text xml:space="preserve" text-anchor="middle" x="1937.2" y="-286.95" font-family="Helvetica,sans-Serif" font-size="11.00" fill="#2d3436">• Error Rates</text>
</g>
<!-- 2e96fff5818149ebbd71af80b1d33357&#45;&gt;f54a6362fd06408c94fe9771ae1f65da -->
<g id="edge18" class="edge">
<title>2e96fff5818149ebbd71af80b1d33357&#45;&gt;f54a6362fd06408c94fe9771ae1f65da</title>
<path fill="none" stroke="#b71c1c" stroke-width="2.5" stroke-dasharray="1,5" d="M1297.3,-850.16C1297.3,-675.87 1297.3,-358.3 1297.3,-358.3 1297.3,-358.3 1868.94,-358.3 1868.94,-358.3"/>
<polygon fill="#b71c1c" stroke="#b71c1c" stroke-width="2.5" points="1883.94,-358.3 1868.94,-365.05 1879.49,-359.05 1868.94,-359.05 1868.94,-358.3 1868.94,-357.55 1879.49,-357.55 1868.94,-351.55 1883.94,-358.3"/>
<text xml:space="preserve" text-anchor="middle" x="1621.15" y="-421.65" font-family="Sans-Serif" font-size="13.00" fill="#2d3436">Quality Metrics</text>
</g>
<!-- a38f7ca084174a0cbe47431b28826bf1 -->
<g id="node8" class="node">
<title>a38f7ca084174a0cbe47431b28826bf1</title>
<path fill="#ffffff" stroke="none" stroke-width="2.5" d="M1975.6,-802.1C1975.6,-802.1 1898.8,-802.1 1898.8,-802.1 1892.8,-802.1 1886.8,-796.1 1886.8,-790.1 1886.8,-790.1 1886.8,-590.9 1886.8,-590.9 1886.8,-584.9 1892.8,-578.9 1898.8,-578.9 1898.8,-578.9 1975.6,-578.9 1975.6,-578.9 1981.6,-578.9 1987.6,-584.9 1987.6,-590.9 1987.6,-590.9 1987.6,-790.1 1987.6,-790.1 1987.6,-796.1 1981.6,-802.1 1975.6,-802.1"/>
<image xlink:href="D:\Data Engineering\Projects\data-platform\.venv\Lib\site-packages\resources/onprem/compute\server.png" width="100.8px" height="100.8px" preserveAspectRatio="xMinYMin meet" x="1886.8" y="-740.9"/>
<text xml:space="preserve" text-anchor="middle" x="1937.2" y="-622.45" font-family="Helvetica,sans-Serif" font-size="11.00" fill="#2d3436">Aggregation Service</text>
<text xml:space="preserve" text-anchor="middle" x="1937.2" y="-608.95" font-family="Helvetica,sans-Serif" font-size="11.00" fill="#2d3436">• Daily Metrics</text>
<text xml:space="preserve" text-anchor="middle" x="1937.2" y="-595.45" font-family="Helvetica,sans-Serif" font-size="11.00" fill="#2d3436">• Product Performance</text>
<text xml:space="preserve" text-anchor="middle" x="1937.2" y="-581.95" font-family="Helvetica,sans-Serif" font-size="11.00" fill="#2d3436">• User Analytics</text>
</g>
<!-- 32e64774015e4dc1adab2f50e1521a7a&#45;&gt;a38f7ca084174a0cbe47431b28826bf1 -->
<g id="edge7" class="edge">
<title>32e64774015e4dc1adab2f50e1521a7a&#45;&gt;a38f7ca084174a0cbe47431b28826bf1</title>
<path fill="none" stroke="#4a148c" stroke-width="2.5" d="M1671.23,-690.5C1671.23,-690.5 1868.79,-690.5 1868.79,-690.5"/>
<polygon fill="#4a148c" stroke="#4a148c" stroke-width="2.5" points="1883.79,-690.5 1868.79,-697.25 1879.33,-691.25 1868.79,-691.25 1868.79,-690.5 1868.79,-689.75 1879.33,-689.75 1868.79,-683.75 1883.79,-690.5"/>
<text xml:space="preserve" text-anchor="middle" x="1779.18" y="-694.65" font-family="Sans-Serif" font-size="13.00" fill="#2d3436">Process</text>
</g>
<!-- 32e64774015e4dc1adab2f50e1521a7a&#45;&gt;f54a6362fd06408c94fe9771ae1f65da -->
<g id="edge19" class="edge">
<title>32e64774015e4dc1adab2f50e1521a7a&#45;&gt;f54a6362fd06408c94fe9771ae1f65da</title>
<path fill="none" stroke="#b71c1c" stroke-width="2.5" stroke-dasharray="1,5" d="M1621.3,-607.87C1621.3,-532.46 1621.3,-432.7 1621.3,-432.7 1621.3,-432.7 1869.1,-432.7 1869.1,-432.7"/>
<polygon fill="#b71c1c" stroke="#b71c1c" stroke-width="2.5" points="1884.1,-432.7 1869.1,-439.45 1879.64,-433.45 1869.1,-433.45 1869.1,-432.7 1869.1,-431.95 1879.64,-431.95 1869.1,-425.95 1884.1,-432.7"/>
<text xml:space="preserve" text-anchor="middle" x="1779.18" y="-578.65" font-family="Sans-Serif" font-size="13.00" fill="#2d3436">Performance</text>
</g>
<!-- 6dafeb0d4c364155950eb64fa323e037 -->
<g id="node9" class="node">
<title>6dafeb0d4c364155950eb64fa323e037</title>
<path fill="#ffffff" stroke="none" stroke-width="2.5" d="M2272.9,-773.3C2272.9,-773.3 2196.1,-773.3 2196.1,-773.3 2190.1,-773.3 2184.1,-767.3 2184.1,-761.3 2184.1,-761.3 2184.1,-619.7 2184.1,-619.7 2184.1,-613.7 2190.1,-607.7 2196.1,-607.7 2196.1,-607.7 2272.9,-607.7 2272.9,-607.7 2278.9,-607.7 2284.9,-613.7 2284.9,-619.7 2284.9,-619.7 2284.9,-761.3 2284.9,-761.3 2284.9,-767.3 2278.9,-773.3 2272.9,-773.3"/>
<image xlink:href="D:\Data Engineering\Projects\data-platform\.venv\Lib\site-packages\resources/onprem/queue\kafka.png" width="100.8px" height="100.8px" preserveAspectRatio="xMinYMin meet" x="2184.1" y="-740.9"/>
<text xml:space="preserve" text-anchor="middle" x="2234.5" y="-624.25" font-family="Helvetica,sans-Serif" font-size="11.00" fill="#2d3436">Task Scheduler</text>
<text xml:space="preserve" text-anchor="middle" x="2234.5" y="-610.75" font-family="Helvetica,sans-Serif" font-size="11.00" fill="#2d3436">Batch Processing</text>
</g>
<!-- a38f7ca084174a0cbe47431b28826bf1&#45;&gt;6dafeb0d4c364155950eb64fa323e037 -->
<g id="edge8" class="edge">
<title>a38f7ca084174a0cbe47431b28826bf1&#45;&gt;6dafeb0d4c364155950eb64fa323e037</title>
<path fill="none" stroke="#4a148c" stroke-width="2.5" d="M1987.3,-690.5C1987.3,-690.5 2166.15,-690.5 2166.15,-690.5"/>
<polygon fill="#4a148c" stroke="#4a148c" stroke-width="2.5" points="2181.15,-690.5 2166.15,-697.25 2176.7,-691.25 2166.15,-691.25 2166.15,-690.5 2166.15,-689.75 2176.7,-689.75 2166.15,-683.75 2181.15,-690.5"/>
<text xml:space="preserve" text-anchor="middle" x="2085.85" y="-694.65" font-family="Sans-Serif" font-size="13.00" fill="#2d3436">Schedule</text>
</g>
<!-- 835169248a804eceb00f9ffec2b48943 -->
<g id="node10" class="node">
<title>835169248a804eceb00f9ffec2b48943</title>
<path fill="#ffffff" stroke="none" stroke-width="2.5" d="M2587.45,-773.3C2587.45,-773.3 2510.65,-773.3 2510.65,-773.3 2504.65,-773.3 2498.65,-767.3 2498.65,-761.3 2498.65,-761.3 2498.65,-619.7 2498.65,-619.7 2498.65,-613.7 2504.65,-607.7 2510.65,-607.7 2510.65,-607.7 2587.45,-607.7 2587.45,-607.7 2593.45,-607.7 2599.45,-613.7 2599.45,-619.7 2599.45,-619.7 2599.45,-761.3 2599.45,-761.3 2599.45,-767.3 2593.45,-773.3 2587.45,-773.3"/>
<image xlink:href="D:\Data Engineering\Projects\data-platform\.venv\Lib\site-packages\resources/onprem/database\postgresql.png" width="100.8px" height="100.8px" preserveAspectRatio="xMinYMin meet" x="2498.65" y="-740.9"/>
<text xml:space="preserve" text-anchor="middle" x="2549.05" y="-624.25" font-family="Helvetica,sans-Serif" font-size="11.00" fill="#2d3436">PostgreSQL 15</text>
<text xml:space="preserve" text-anchor="middle" x="2549.05" y="-610.75" font-family="Helvetica,sans-Serif" font-size="11.00" fill="#2d3436">Core Database</text>
</g>
<!-- 6dafeb0d4c364155950eb64fa323e037&#45;&gt;835169248a804eceb00f9ffec2b48943 -->
<g id="edge9" class="edge">
<title>6dafeb0d4c364155950eb64fa323e037&#45;&gt;835169248a804eceb00f9ffec2b48943</title>
<path fill="none" stroke="#4a148c" stroke-width="2.5" d="M2284.69,-690.5C2284.69,-690.5 2480.73,-690.5 2480.73,-690.5"/>
<polygon fill="#4a148c" stroke="#4a148c" stroke-width="2.5" points="2495.73,-690.5 2480.73,-697.25 2491.28,-691.25 2480.73,-691.25 2480.73,-690.5 2480.73,-689.75 2491.28,-689.75 2480.73,-683.75 2495.73,-690.5"/>
<text xml:space="preserve" text-anchor="middle" x="2391.78" y="-694.65" font-family="Sans-Serif" font-size="13.00" fill="#2d3436">Batch Insert</text>
</g>
<!-- 5cba49afd2194afb98354aa051ec3e39 -->
<g id="node11" class="node">
<title>5cba49afd2194afb98354aa051ec3e39</title>
<path fill="#ffffff" stroke="none" stroke-width="2.5" d="M2905,-1331.9C2905,-1331.9 2828.2,-1331.9 2828.2,-1331.9 2822.2,-1331.9 2816.2,-1325.9 2816.2,-1319.9 2816.2,-1319.9 2816.2,-1063.1 2816.2,-1063.1 2816.2,-1057.1 2822.2,-1051.1 2828.2,-1051.1 2828.2,-1051.1 2905,-1051.1 2905,-1051.1 2911,-1051.1 2917,-1057.1 2917,-1063.1 2917,-1063.1 2917,-1319.9 2917,-1319.9 2917,-1325.9 2911,-1331.9 2905,-1331.9"/>
<image xlink:href="D:\Data Engineering\Projects\data-platform\.venv\Lib\site-packages\resources/onprem/database\postgresql.png" width="100.8px" height="100.8px" preserveAspectRatio="xMinYMin meet" x="2816.2" y="-1241.9"/>
<text xml:space="preserve" text-anchor="middle" x="2866.6" y="-1121.65" font-family="Helvetica,sans-Serif" font-size="11.00" fill="#2d3436">events</text>
<text xml:space="preserve" text-anchor="middle" x="2866.6" y="-1108.15" font-family="Helvetica,sans-Serif" font-size="11.00" fill="#2d3436">• user_id</text>
<text xml:space="preserve" text-anchor="middle" x="2866.6" y="-1094.65" font-family="Helvetica,sans-Serif" font-size="11.00" fill="#2d3436">• event_type</text>
<text xml:space="preserve" text-anchor="middle" x="2866.6" y="-1081.15" font-family="Helvetica,sans-Serif" font-size="11.00" fill="#2d3436">• timestamp</text>
<text xml:space="preserve" text-anchor="middle" x="2866.6" y="-1067.65" font-family="Helvetica,sans-Serif" font-size="11.00" fill="#2d3436">• product_id</text>
<text xml:space="preserve" text-anchor="middle" x="2866.6" y="-1054.15" font-family="Helvetica,sans-Serif" font-size="11.00" fill="#2d3436">• amount</text>
</g>
<!-- 835169248a804eceb00f9ffec2b48943&#45;&gt;5cba49afd2194afb98354aa051ec3e39 -->
<g id="edge10" class="edge">
<title>835169248a804eceb00f9ffec2b48943&#45;&gt;5cba49afd2194afb98354aa051ec3e39</title>
<path fill="none" stroke="#e65100" stroke-width="2" d="M2549.3,-772.97C2549.3,-882.45 2549.3,-1062.1 2549.3,-1062.1 2549.3,-1062.1 2798.89,-1062.1 2798.89,-1062.1"/>
<polygon fill="#e65100" stroke="#e65100" stroke-width="2" points="2813.89,-1062.1 2798.89,-1068.85 2808.82,-1062.6 2798.89,-1062.6 2798.89,-1062.1 2798.89,-1061.6 2808.82,-1061.6 2798.89,-1055.35 2813.89,-1062.1"/>
<text xml:space="preserve" text-anchor="middle" x="2707.83" y="-1072.65" font-family="Sans-Serif" font-size="13.00" fill="#2d3436">Raw Storage</text>
</g>
<!-- 80272a401939444cabb7e05ae0ba5021 -->
<g id="node12" class="node">
<title>80272a401939444cabb7e05ae0ba5021</title>
<path fill="#ffffff" stroke="none" stroke-width="2.5" d="M2905,-655.5C2905,-655.5 2828.2,-655.5 2828.2,-655.5 2822.2,-655.5 2816.2,-649.5 2816.2,-643.5 2816.2,-643.5 2816.2,-415.5 2816.2,-415.5 2816.2,-409.5 2822.2,-403.5 2828.2,-403.5 2828.2,-403.5 2905,-403.5 2905,-403.5 2911,-403.5 2917,-409.5 2917,-415.5 2917,-415.5 2917,-643.5 2917,-643.5 2917,-649.5 2911,-655.5 2905,-655.5"/>
<image xlink:href="D:\Data Engineering\Projects\data-platform\.venv\Lib\site-packages\resources/onprem/database\postgresql.png" width="100.8px" height="100.8px" preserveAspectRatio="xMinYMin meet" x="2816.2" y="-579.9"/>
<text xml:space="preserve" text-anchor="middle" x="2866.6" y="-460.55" font-family="Helvetica,sans-Serif" font-size="11.00" fill="#2d3436">daily_metrics</text>
<text xml:space="preserve" text-anchor="middle" x="2866.6" y="-447.05" font-family="Helvetica,sans-Serif" font-size="11.00" fill="#2d3436">• date</text>
<text xml:space="preserve" text-anchor="middle" x="2866.6" y="-433.55" font-family="Helvetica,sans-Serif" font-size="11.00" fill="#2d3436">• total_revenue</text>
<text xml:space="preserve" text-anchor="middle" x="2866.6" y="-420.05" font-family="Helvetica,sans-Serif" font-size="11.00" fill="#2d3436">• unique_users</text>
<text xml:space="preserve" text-anchor="middle" x="2866.6" y="-406.55" font-family="Helvetica,sans-Serif" font-size="11.00" fill="#2d3436">• avg_order_value</text>
</g>
<!-- 835169248a804eceb00f9ffec2b48943&#45;&gt;80272a401939444cabb7e05ae0ba5021 -->
<g id="edge11" class="edge">
<title>835169248a804eceb00f9ffec2b48943&#45;&gt;80272a401939444cabb7e05ae0ba5021</title>
<path fill="none" stroke="#e65100" stroke-width="2" d="M2599.37,-631.6C2599.37,-631.6 2798.82,-631.6 2798.82,-631.6"/>
<polygon fill="#e65100" stroke="#e65100" stroke-width="2" points="2813.82,-631.6 2798.82,-638.35 2808.76,-632.1 2798.82,-632.1 2798.82,-631.6 2798.82,-631.1 2808.76,-631.1 2798.82,-624.85 2813.82,-631.6"/>
<text xml:space="preserve" text-anchor="middle" x="2707.83" y="-590.65" font-family="Sans-Serif" font-size="13.00" fill="#2d3436">Aggregated</text>
</g>
<!-- 6cdee5389c8b4553850f220581e4e663 -->
<g id="node13" class="node">
<title>6cdee5389c8b4553850f220581e4e663</title>
<path fill="#ffffff" stroke="none" stroke-width="2.5" d="M2905,-979.5C2905,-979.5 2828.2,-979.5 2828.2,-979.5 2822.2,-979.5 2816.2,-973.5 2816.2,-967.5 2816.2,-967.5 2816.2,-739.5 2816.2,-739.5 2816.2,-733.5 2822.2,-727.5 2828.2,-727.5 2828.2,-727.5 2905,-727.5 2905,-727.5 2911,-727.5 2917,-733.5 2917,-739.5 2917,-739.5 2917,-967.5 2917,-967.5 2917,-973.5 2911,-979.5 2905,-979.5"/>
<image xlink:href="D:\Data Engineering\Projects\data-platform\.venv\Lib\site-packages\resources/onprem/database\postgresql.png" width="100.8px" height="100.8px" preserveAspectRatio="xMinYMin meet" x="2816.2" y="-903.9"/>
<text xml:space="preserve" text-anchor="middle" x="2866.6" y="-784.55" font-family="Helvetica,sans-Serif" font-size="11.00" fill="#2d3436">product_performance</text>
<text xml:space="preserve" text-anchor="middle" x="2866.6" y="-771.05" font-family="Helvetica,sans-Serif" font-size="11.00" fill="#2d3436">• product_id</text>
<text xml:space="preserve" text-anchor="middle" x="2866.6" y="-757.55" font-family="Helvetica,sans-Serif" font-size="11.00" fill="#2d3436">• views</text>
<text xml:space="preserve" text-anchor="middle" x="2866.6" y="-744.05" font-family="Helvetica,sans-Serif" font-size="11.00" fill="#2d3436">• purchases</text>
<text xml:space="preserve" text-anchor="middle" x="2866.6" y="-730.55" font-family="Helvetica,sans-Serif" font-size="11.00" fill="#2d3436">• conversion_rate</text>
</g>
<!-- 835169248a804eceb00f9ffec2b48943&#45;&gt;6cdee5389c8b4553850f220581e4e663 -->
<g id="edge12" class="edge">
<title>835169248a804eceb00f9ffec2b48943&#45;&gt;6cdee5389c8b4553850f220581e4e663</title>
<path fill="none" stroke="#e65100" stroke-width="2" d="M2599.37,-750.4C2599.37,-750.4 2798.82,-750.4 2798.82,-750.4"/>
<polygon fill="#e65100" stroke="#e65100" stroke-width="2" points="2813.82,-750.4 2798.82,-757.15 2808.76,-750.9 2798.82,-750.9 2798.82,-750.4 2798.82,-749.9 2808.76,-749.9 2798.82,-743.65 2813.82,-750.4"/>
<text xml:space="preserve" text-anchor="middle" x="2707.83" y="-799.65" font-family="Sans-Serif" font-size="13.00" fill="#2d3436">Analytics</text>
</g>
<!-- f2955df2767541d8b57695632f3be085 -->
<g id="node16" class="node">
<title>f2955df2767541d8b57695632f3be085</title>
<path fill="#ffffff" stroke="none" stroke-width="2.5" d="M3199.3,-406.1C3199.3,-406.1 3122.5,-406.1 3122.5,-406.1 3116.5,-406.1 3110.5,-400.1 3110.5,-394.1 3110.5,-394.1 3110.5,-194.9 3110.5,-194.9 3110.5,-188.9 3116.5,-182.9 3122.5,-182.9 3122.5,-182.9 3199.3,-182.9 3199.3,-182.9 3205.3,-182.9 3211.3,-188.9 3211.3,-194.9 3211.3,-194.9 3211.3,-394.1 3211.3,-394.1 3211.3,-400.1 3205.3,-406.1 3199.3,-406.1"/>
<image xlink:href="D:\Data Engineering\Projects\data-platform\.venv\Lib\site-packages\resources/onprem/analytics\metabase.png" width="100.8px" height="100.8px" preserveAspectRatio="xMinYMin meet" x="3110.5" y="-344.9"/>
<text xml:space="preserve" text-anchor="middle" x="3160.9" y="-226.45" font-family="Helvetica,sans-Serif" font-size="11.00" fill="#2d3436">Real&#45;time Monitor</text>
<text xml:space="preserve" text-anchor="middle" x="3160.9" y="-212.95" font-family="Helvetica,sans-Serif" font-size="11.00" fill="#2d3436">• Pipeline Health</text>
<text xml:space="preserve" text-anchor="middle" x="3160.9" y="-199.45" font-family="Helvetica,sans-Serif" font-size="11.00" fill="#2d3436">• Data Quality</text>
<text xml:space="preserve" text-anchor="middle" x="3160.9" y="-185.95" font-family="Helvetica,sans-Serif" font-size="11.00" fill="#2d3436">• System Status</text>
</g>
<!-- 835169248a804eceb00f9ffec2b48943&#45;&gt;f2955df2767541d8b57695632f3be085 -->
<g id="edge16" class="edge">
<title>835169248a804eceb00f9ffec2b48943&#45;&gt;f2955df2767541d8b57695632f3be085</title>
<path fill="none" stroke="#1565c0" stroke-width="2" d="M2549.3,-607.87C2549.3,-505.3 2549.3,-343.7 2549.3,-343.7 2549.3,-343.7 3093.15,-343.7 3093.15,-343.7"/>
<polygon fill="#1565c0" stroke="#1565c0" stroke-width="2" points="3108.15,-343.7 3093.15,-350.45 3103.09,-344.2 3093.15,-344.2 3093.15,-343.7 3093.15,-343.2 3103.09,-343.2 3093.15,-336.95 3108.15,-343.7"/>
<text xml:space="preserve" text-anchor="middle" x="2866.6" y="-311.65" font-family="Sans-Serif" font-size="13.00" fill="#2d3436">Monitor</text>
</g>
<!-- 34fccac96aa1403ca4ff38efc63d5647 -->
<g id="node14" class="node">
<title>34fccac96aa1403ca4ff38efc63d5647</title>
<path fill="#ffffff" stroke="none" stroke-width="2.5" d="M3199.3,-1233.3C3199.3,-1233.3 3122.5,-1233.3 3122.5,-1233.3 3116.5,-1233.3 3110.5,-1227.3 3110.5,-1221.3 3110.5,-1221.3 3110.5,-1079.7 3110.5,-1079.7 3110.5,-1073.7 3116.5,-1067.7 3122.5,-1067.7 3122.5,-1067.7 3199.3,-1067.7 3199.3,-1067.7 3205.3,-1067.7 3211.3,-1073.7 3211.3,-1079.7 3211.3,-1079.7 3211.3,-1221.3 3211.3,-1221.3 3211.3,-1227.3 3205.3,-1233.3 3199.3,-1233.3"/>
<image xlink:href="D:\Data Engineering\Projects\data-platform\.venv\Lib\site-packages\resources/onprem/analytics\metabase.png" width="100.8px" height="100.8px" preserveAspectRatio="xMinYMin meet" x="3110.5" y="-1200.9"/>
<text xml:space="preserve" text-anchor="middle" x="3160.9" y="-1084.25" font-family="Helvetica,sans-Serif" font-size="11.00" fill="#2d3436">Metabase Engine</text>
<text xml:space="preserve" text-anchor="middle" x="3160.9" y="-1070.75" font-family="Helvetica,sans-Serif" font-size="11.00" fill="#2d3436">Query Processor</text>
</g>
<!-- 5cba49afd2194afb98354aa051ec3e39&#45;&gt;34fccac96aa1403ca4ff38efc63d5647 -->
<g id="edge13" class="edge">
<title>5cba49afd2194afb98354aa051ec3e39&#45;&gt;34fccac96aa1403ca4ff38efc63d5647</title>
<path fill="none" stroke="#1565c0" stroke-width="2" d="M2916.86,-1150.5C2916.86,-1150.5 3093.41,-1150.5 3093.41,-1150.5"/>
<polygon fill="#1565c0" stroke="#1565c0" stroke-width="2" points="3108.41,-1150.5 3093.41,-1157.25 3103.35,-1151 3093.41,-1151 3093.41,-1150.5 3093.41,-1150 3103.35,-1150 3093.41,-1143.75 3108.41,-1150.5"/>
<text xml:space="preserve" text-anchor="middle" x="3013.75" y="-1174.65" font-family="Sans-Serif" font-size="13.00" fill="#2d3436">Query</text>
</g>
<!-- d75e868872a94d51b6e91ad87d0c58d7 -->
<g id="node15" class="node">
<title>d75e868872a94d51b6e91ad87d0c58d7</title>
<path fill="#ffffff" stroke="none" stroke-width="2.5" d="M3199.3,-701.1C3199.3,-701.1 3122.5,-701.1 3122.5,-701.1 3116.5,-701.1 3110.5,-695.1 3110.5,-689.1 3110.5,-689.1 3110.5,-489.9 3110.5,-489.9 3110.5,-483.9 3116.5,-477.9 3122.5,-477.9 3122.5,-477.9 3199.3,-477.9 3199.3,-477.9 3205.3,-477.9 3211.3,-483.9 3211.3,-489.9 3211.3,-489.9 3211.3,-689.1 3211.3,-689.1 3211.3,-695.1 3205.3,-701.1 3199.3,-701.1"/>
<image xlink:href="D:\Data Engineering\Projects\data-platform\.venv\Lib\site-packages\resources/onprem/analytics\metabase.png" width="100.8px" height="100.8px" preserveAspectRatio="xMinYMin meet" x="3110.5" y="-639.9"/>
<text xml:space="preserve" text-anchor="middle" x="3160.9" y="-521.45" font-family="Helvetica,sans-Serif" font-size="11.00" fill="#2d3436">Executive KPIs</text>
<text xml:space="preserve" text-anchor="middle" x="3160.9" y="-507.95" font-family="Helvetica,sans-Serif" font-size="11.00" fill="#2d3436">• $30.2K Revenue</text>
<text xml:space="preserve" text-anchor="middle" x="3160.9" y="-494.45" font-family="Helvetica,sans-Serif" font-size="11.00" fill="#2d3436">• 19.14% Conversion</text>
<text xml:space="preserve" text-anchor="middle" x="3160.9" y="-480.95" font-family="Helvetica,sans-Serif" font-size="11.00" fill="#2d3436">• 949 Users</text>
</g>
<!-- 80272a401939444cabb7e05ae0ba5021&#45;&gt;d75e868872a94d51b6e91ad87d0c58d7 -->
<g id="edge14" class="edge">
<title>80272a401939444cabb7e05ae0ba5021&#45;&gt;d75e868872a94d51b6e91ad87d0c58d7</title>
<path fill="none" stroke="#1565c0" stroke-width="2" d="M2916.86,-566.7C2916.86,-566.7 3093.41,-566.7 3093.41,-566.7"/>
<polygon fill="#1565c0" stroke="#1565c0" stroke-width="2" points="3108.41,-566.7 3093.41,-573.45 3103.35,-567.2 3093.41,-567.2 3093.41,-566.7 3093.41,-566.2 3103.35,-566.2 3093.41,-559.95 3108.41,-566.7"/>
<text xml:space="preserve" text-anchor="middle" x="3013.75" y="-563.65" font-family="Sans-Serif" font-size="13.00" fill="#2d3436">Visualize</text>
</g>
<!-- a3ab5542ca214d8a993c5090a97e25cf -->
<g id="node17" class="node">
<title>a3ab5542ca214d8a993c5090a97e25cf</title>
<path fill="#ffffff" stroke="none" stroke-width="2.5" d="M3199.3,-996.1C3199.3,-996.1 3122.5,-996.1 3122.5,-996.1 3116.5,-996.1 3110.5,-990.1 3110.5,-984.1 3110.5,-984.1 3110.5,-784.9 3110.5,-784.9 3110.5,-778.9 3116.5,-772.9 3122.5,-772.9 3122.5,-772.9 3199.3,-772.9 3199.3,-772.9 3205.3,-772.9 3211.3,-778.9 3211.3,-784.9 3211.3,-784.9 3211.3,-984.1 3211.3,-984.1 3211.3,-990.1 3205.3,-996.1 3199.3,-996.1"/>
<image xlink:href="D:\Data Engineering\Projects\data-platform\.venv\Lib\site-packages\resources/onprem/analytics\metabase.png" width="100.8px" height="100.8px" preserveAspectRatio="xMinYMin meet" x="3110.5" y="-934.9"/>
<text xml:space="preserve" text-anchor="middle" x="3160.9" y="-816.45" font-family="Helvetica,sans-Serif" font-size="11.00" fill="#2d3436">Product Analytics</text>
<text xml:space="preserve" text-anchor="middle" x="3160.9" y="-802.95" font-family="Helvetica,sans-Serif" font-size="11.00" fill="#2d3436">• Top Products</text>
<text xml:space="preserve" text-anchor="middle" x="3160.9" y="-789.45" font-family="Helvetica,sans-Serif" font-size="11.00" fill="#2d3436">• Performance Trends</text>
<text xml:space="preserve" text-anchor="middle" x="3160.9" y="-775.95" font-family="Helvetica,sans-Serif" font-size="11.00" fill="#2d3436">• User Behavior</text>
</g>
<!-- 6cdee5389c8b4553850f220581e4e663&#45;&gt;a3ab5542ca214d8a993c5090a97e25cf -->
<g id="edge15" class="edge">
<title>6cdee5389c8b4553850f220581e4e663&#45;&gt;a3ab5542ca214d8a993c5090a97e25cf</title>
<path fill="none" stroke="#1565c0" stroke-width="2" d="M2916.86,-876.2C2916.86,-876.2 3093.41,-876.2 3093.41,-876.2"/>
<polygon fill="#1565c0" stroke="#1565c0" stroke-width="2" points="3108.41,-876.2 3093.41,-882.95 3103.35,-876.7 3093.41,-876.7 3093.41,-876.2 3093.41,-875.7 3103.35,-875.7 3093.41,-869.45 3108.41,-876.2"/>
<text xml:space="preserve" text-anchor="middle" x="3013.75" y="-863.65" font-family="Sans-Serif" font-size="13.00" fill="#2d3436">Analyze</text>
</g>
<!-- 98b70453ea3c448f9965c392fdb65eb2 -->
<g id="node20" class="node">
<title>98b70453ea3c448f9965c392fdb65eb2</title>
<path fill="#ffffff" stroke="none" stroke-width="2.5" d="M2272.9,-507.1C2272.9,-507.1 2196.1,-507.1 2196.1,-507.1 2190.1,-507.1 2184.1,-501.1 2184.1,-495.1 2184.1,-495.1 2184.1,-295.9 2184.1,-295.9 2184.1,-289.9 2190.1,-283.9 2196.1,-283.9 2196.1,-283.9 2272.9,-283.9 2272.9,-283.9 2278.9,-283.9 2284.9,-289.9 2284.9,-295.9 2284.9,-295.9 2284.9,-495.1 2284.9,-495.1 2284.9,-501.1 2278.9,-507.1 2272.9,-507.1"/>
<image xlink:href="D:\Data Engineering\Projects\data-platform\.venv\Lib\site-packages\resources/onprem/compute\server.png" width="100.8px" height="100.8px" preserveAspectRatio="xMinYMin meet" x="2184.1" y="-445.9"/>
<text xml:space="preserve" text-anchor="middle" x="2234.5" y="-327.45" font-family="Helvetica,sans-Serif" font-size="11.00" fill="#2d3436">Alert Manager</text>
<text xml:space="preserve" text-anchor="middle" x="2234.5" y="-313.95" font-family="Helvetica,sans-Serif" font-size="11.00" fill="#2d3436">• Threshold Monitoring</text>
<text xml:space="preserve" text-anchor="middle" x="2234.5" y="-300.45" font-family="Helvetica,sans-Serif" font-size="11.00" fill="#2d3436">• Notification System</text>
<text xml:space="preserve" text-anchor="middle" x="2234.5" y="-286.95" font-family="Helvetica,sans-Serif" font-size="11.00" fill="#2d3436">• SLA Tracking</text>
</g>
<!-- f54a6362fd06408c94fe9771ae1f65da&#45;&gt;98b70453ea3c448f9965c392fdb65eb2 -->
<g id="edge20" class="edge">
<title>f54a6362fd06408c94fe9771ae1f65da&#45;&gt;98b70453ea3c448f9965c392fdb65eb2</title>
<path fill="none" stroke="#b71c1c" stroke-width="2.5" stroke-dasharray="5,2" d="M1987.3,-395.5C1987.3,-395.5 2166.15,-395.5 2166.15,-395.5"/>
<polygon fill="#b71c1c" stroke="#b71c1c" stroke-width="2.5" points="2181.15,-395.5 2166.15,-402.25 2176.7,-396.25 2166.15,-396.25 2166.15,-395.5 2166.15,-394.75 2176.7,-394.75 2166.15,-388.75 2181.15,-395.5"/>
<text xml:space="preserve" text-anchor="middle" x="2085.85" y="-399.65" font-family="Sans-Serif" font-size="13.00" fill="#2d3436">Alerts</text>
</g>
</g>
</svg>
