<?xml version="1.0" encoding="UTF-8" standalone="no"?>
<!DOCTYPE svg PUBLIC "-//W3C//DTD SVG 1.1//EN"
 "http://www.w3.org/Graphics/SVG/1.1/DTD/svg11.dtd">
<!-- Generated by graphviz version 13.1.0 (20250701.0955)
 -->
<!-- Title: Data Platform &#45; Executive Overview Pages: 1 -->
<svg width="1386pt" height="767pt"
 viewBox="0.00 0.00 1386.00 767.00" xmlns="http://www.w3.org/2000/svg" xmlns:xlink="http://www.w3.org/1999/xlink">
<g id="graph0" class="graph" transform="scale(1 1) rotate(0) translate(72 694.95)">
<title>Data Platform &#45; Executive Overview</title>
<polygon fill="white" stroke="none" points="-72,72 -72,-694.95 1314.45,-694.95 1314.45,72 -72,72"/>
<text xml:space="preserve" text-anchor="middle" x="621.23" y="-9.75" font-family="Helvetica Bold" font-size="20.00" fill="#2d3436">Data Platform &#45; Executive Overview</text>
<!-- c5d06ef9bdca47dbba6f7a230d4aa3bc -->
<g id="node1" class="node">
<title>c5d06ef9bdca47dbba6f7a230d4aa3bc</title>
<path fill="#f5f5f5" stroke="none" stroke-width="3" d="M88.8,-622.95C88.8,-622.95 12,-622.95 12,-622.95 6,-622.95 0,-616.95 0,-610.95 0,-610.95 0,-411.75 0,-411.75 0,-405.75 6,-399.75 12,-399.75 12,-399.75 88.8,-399.75 88.8,-399.75 94.8,-399.75 100.8,-405.75 100.8,-411.75 100.8,-411.75 100.8,-610.95 100.8,-610.95 100.8,-616.95 94.8,-622.95 88.8,-622.95"/>
<image xlink:href="D:\Data Engineering\Projects\data-platform\.venv\Lib\site-packages\resources/programming/language\python.png" width="100.8px" height="100.8px" preserveAspectRatio="xMinYMin meet" x="8.52651e-14" y="-561.75"/>
<text xml:space="preserve" text-anchor="middle" x="50.4" y="-454.2" font-family="Helvetica Bold" font-size="14.00" fill="#2d3436">Data Generation</text>
<text xml:space="preserve" text-anchor="middle" x="50.4" y="-436.95" font-family="Helvetica Bold" font-size="14.00" fill="#2d3436">Python + Faker</text>
<text xml:space="preserve" text-anchor="middle" x="50.4" y="-403.7" font-family="Helvetica Bold" font-size="14.00" fill="#2d3436">500+ Events/Hour</text>
</g>
<!-- 061e212f6e54432e8d16361ffe0788ee -->
<g id="node2" class="node">
<title>061e212f6e54432e8d16361ffe0788ee</title>
<path fill="#f5f5f5" stroke="none" stroke-width="3" d="M473.1,-622.95C473.1,-622.95 396.3,-622.95 396.3,-622.95 390.3,-622.95 384.3,-616.95 384.3,-610.95 384.3,-610.95 384.3,-411.75 384.3,-411.75 384.3,-405.75 390.3,-399.75 396.3,-399.75 396.3,-399.75 473.1,-399.75 473.1,-399.75 479.1,-399.75 485.1,-405.75 485.1,-411.75 485.1,-411.75 485.1,-610.95 485.1,-610.95 485.1,-616.95 479.1,-622.95 473.1,-622.95"/>
<image xlink:href="D:\Data Engineering\Projects\data-platform\.venv\Lib\site-packages\resources/programming/language\python.png" width="100.8px" height="100.8px" preserveAspectRatio="xMinYMin meet" x="384.3" y="-561.75"/>
<text xml:space="preserve" text-anchor="middle" x="434.7" y="-454.2" font-family="Helvetica Bold" font-size="14.00" fill="#2d3436">ETL Pipeline</text>
<text xml:space="preserve" text-anchor="middle" x="434.7" y="-436.95" font-family="Helvetica Bold" font-size="14.00" fill="#2d3436">Validation &amp; Transform</text>
<text xml:space="preserve" text-anchor="middle" x="434.7" y="-403.7" font-family="Helvetica Bold" font-size="14.00" fill="#2d3436">Real&#45;time Processing</text>
</g>
<!-- c5d06ef9bdca47dbba6f7a230d4aa3bc&#45;&gt;061e212f6e54432e8d16361ffe0788ee -->
<g id="edge1" class="edge">
<title>c5d06ef9bdca47dbba6f7a230d4aa3bc&#45;&gt;061e212f6e54432e8d16361ffe0788ee</title>
<path fill="none" stroke="#4caf50" stroke-width="5" d="M100.78,-524.67C169.71,-541.56 204.86,-540.34 358.67,-521.04"/>
<polygon fill="#4caf50" stroke="#4caf50" stroke-width="5" points="359.47,-529.76 378.21,-518.57 357.28,-512.4 359.47,-529.76"/>
<text xml:space="preserve" text-anchor="middle" x="242.55" y="-515.5" font-family="Sans-Serif" font-size="13.00" fill="#2d3436">Raw Events</text>
</g>
<!-- 72e46c25728a44a5b9eb36f3cffcee77 -->
<g id="node3" class="node">
<title>72e46c25728a44a5b9eb36f3cffcee77</title>
<path fill="#f5f5f5" stroke="none" stroke-width="3" d="M862.65,-338.95C862.65,-338.95 785.85,-338.95 785.85,-338.95 779.85,-338.95 773.85,-332.95 773.85,-326.95 773.85,-326.95 773.85,-127.75 773.85,-127.75 773.85,-121.75 779.85,-115.75 785.85,-115.75 785.85,-115.75 862.65,-115.75 862.65,-115.75 868.65,-115.75 874.65,-121.75 874.65,-127.75 874.65,-127.75 874.65,-326.95 874.65,-326.95 874.65,-332.95 868.65,-338.95 862.65,-338.95"/>
<image xlink:href="D:\Data Engineering\Projects\data-platform\.venv\Lib\site-packages\resources/onprem/database\postgresql.png" width="100.8px" height="100.8px" preserveAspectRatio="xMinYMin meet" x="773.85" y="-277.75"/>
<text xml:space="preserve" text-anchor="middle" x="824.25" y="-170.2" font-family="Helvetica Bold" font-size="14.00" fill="#2d3436">PostgreSQL Database</text>
<text xml:space="preserve" text-anchor="middle" x="824.25" y="-152.95" font-family="Helvetica Bold" font-size="14.00" fill="#2d3436">Structured Storage</text>
<text xml:space="preserve" text-anchor="middle" x="824.25" y="-119.7" font-family="Helvetica Bold" font-size="14.00" fill="#2d3436">3 Optimized Tables</text>
</g>
<!-- 061e212f6e54432e8d16361ffe0788ee&#45;&gt;72e46c25728a44a5b9eb36f3cffcee77 -->
<g id="edge2" class="edge">
<title>061e212f6e54432e8d16361ffe0788ee&#45;&gt;72e46c25728a44a5b9eb36f3cffcee77</title>
<path fill="none" stroke="#ff9800" stroke-width="5" d="M485.01,-500.05C623.77,-468.12 655.3,-449.97 758.29,-315.32"/>
<polygon fill="#ff9800" stroke="#ff9800" stroke-width="5" points="765.13,-320.78 770.25,-299.56 751.19,-310.2 765.13,-320.78"/>
<text xml:space="preserve" text-anchor="middle" x="629.48" y="-414.5" font-family="Sans-Serif" font-size="13.00" fill="#2d3436">Clean Data</text>
</g>
<!-- 2d03653242284e86b6e7a81058685ecc -->
<g id="node4" class="node">
<title>2d03653242284e86b6e7a81058685ecc</title>
<path fill="#f5f5f5" stroke="none" stroke-width="3" d="M1230.45,-338.95C1230.45,-338.95 1153.65,-338.95 1153.65,-338.95 1147.65,-338.95 1141.65,-332.95 1141.65,-326.95 1141.65,-326.95 1141.65,-127.75 1141.65,-127.75 1141.65,-121.75 1147.65,-115.75 1153.65,-115.75 1153.65,-115.75 1230.45,-115.75 1230.45,-115.75 1236.45,-115.75 1242.45,-121.75 1242.45,-127.75 1242.45,-127.75 1242.45,-326.95 1242.45,-326.95 1242.45,-332.95 1236.45,-338.95 1230.45,-338.95"/>
<image xlink:href="D:\Data Engineering\Projects\data-platform\.venv\Lib\site-packages\resources/onprem/analytics\metabase.png" width="100.8px" height="100.8px" preserveAspectRatio="xMinYMin meet" x="1141.65" y="-277.75"/>
<text xml:space="preserve" text-anchor="middle" x="1192.05" y="-170.2" font-family="Helvetica Bold" font-size="14.00" fill="#2d3436">Business Intelligence</text>
<text xml:space="preserve" text-anchor="middle" x="1192.05" y="-152.95" font-family="Helvetica Bold" font-size="14.00" fill="#2d3436">Interactive Dashboards</text>
<text xml:space="preserve" text-anchor="middle" x="1192.05" y="-119.7" font-family="Helvetica Bold" font-size="14.00" fill="#2d3436">Executive Insights</text>
</g>
<!-- 72e46c25728a44a5b9eb36f3cffcee77&#45;&gt;2d03653242284e86b6e7a81058685ecc -->
<g id="edge3" class="edge">
<title>72e46c25728a44a5b9eb36f3cffcee77&#45;&gt;2d03653242284e86b6e7a81058685ecc</title>
<path fill="none" stroke="#9c27b0" stroke-width="5" d="M874.4,-223.72C1018.24,-213.38 1065.01,-210.87 1116.05,-216.19"/>
<polygon fill="#9c27b0" stroke="#9c27b0" stroke-width="5" points="1114.78,-224.85 1135.71,-218.65 1116.95,-207.48 1114.78,-224.85"/>
<text xml:space="preserve" text-anchor="middle" x="1008.15" y="-231.5" font-family="Sans-Serif" font-size="13.00" fill="#2d3436">Analytics</text>
</g>
<!-- 1c195d6555724e89a45ad9f6d8f82467 -->
<g id="node5" class="node">
<title>1c195d6555724e89a45ad9f6d8f82467</title>
<path fill="#f5f5f5" stroke="none" stroke-width="3" d="M473.1,-255.95C473.1,-255.95 396.3,-255.95 396.3,-255.95 390.3,-255.95 384.3,-249.95 384.3,-243.95 384.3,-243.95 384.3,-44.75 384.3,-44.75 384.3,-38.75 390.3,-32.75 396.3,-32.75 396.3,-32.75 473.1,-32.75 473.1,-32.75 479.1,-32.75 485.1,-38.75 485.1,-44.75 485.1,-44.75 485.1,-243.95 485.1,-243.95 485.1,-249.95 479.1,-255.95 473.1,-255.95"/>
<image xlink:href="D:\Data Engineering\Projects\data-platform\.venv\Lib\site-packages\resources/onprem/container\docker.png" width="100.8px" height="100.8px" preserveAspectRatio="xMinYMin meet" x="384.3" y="-194.75"/>
<text xml:space="preserve" text-anchor="middle" x="434.7" y="-87.2" font-family="Helvetica Bold" font-size="14.00" fill="#2d3436">Infrastructure</text>
<text xml:space="preserve" text-anchor="middle" x="434.7" y="-69.95" font-family="Helvetica Bold" font-size="14.00" fill="#2d3436">Docker Compose</text>
<text xml:space="preserve" text-anchor="middle" x="434.7" y="-36.7" font-family="Helvetica Bold" font-size="14.00" fill="#2d3436">Fully Containerized</text>
</g>
<!-- 1c195d6555724e89a45ad9f6d8f82467&#45;&gt;72e46c25728a44a5b9eb36f3cffcee77 -->
<g id="edge4" class="edge">
<title>1c195d6555724e89a45ad9f6d8f82467&#45;&gt;72e46c25728a44a5b9eb36f3cffcee77</title>
<path fill="none" stroke="#757575" stroke-width="2" stroke-dasharray="5,2" d="M484.87,-134.9C612.54,-111.58 643.5,-115.22 754.73,-183.55"/>
<polygon fill="#757575" stroke="#757575" stroke-width="2" points="750.83,-189.37 771.51,-193.97 758.21,-177.47 750.83,-189.37"/>
<text xml:space="preserve" text-anchor="middle" x="629.48" y="-148.5" font-family="Sans-Serif" font-size="13.00" fill="#2d3436">Orchestrates</text>
</g>
</g>
</svg>
